<svg width="754" height="686" viewBox="0 0 754 686" fill="none" xmlns="http://www.w3.org/2000/svg">
<path d="M640.669 112.465C656.281 110.919 672.731 114.785 685.909 125.511C698.316 135.609 707.404 151.443 710.392 173.492C719.971 174.349 728.761 179.902 735.353 187.456C743.094 196.327 748.375 208.543 748.874 221.31C749.377 234.204 744.984 247.628 733.459 258.447C722.023 269.183 703.98 276.973 677.81 279.671C677.042 279.751 676.265 279.651 675.542 279.38C651.415 270.336 631.572 251.49 616.659 232.062C601.714 212.59 591.369 192.076 586.373 178.982C586.249 178.658 586.159 178.322 586.105 177.98C580.168 140.423 609.748 115.526 640.669 112.465Z" fill="#F7F7F7" stroke="#171717" stroke-width="10" stroke-linejoin="round"/>
<path d="M272.001 536.998C258 650.998 309.5 795.498 309.501 531.498L272.001 536.998Z" fill="#171717" stroke="#171717" stroke-width="10" stroke-linejoin="bevel"/>
<path d="M536.413 525.498C522.413 639.498 573.912 783.998 573.913 519.998L536.413 525.498Z" fill="#171717" stroke="#171717" stroke-width="10" stroke-linejoin="bevel"/>
<path d="M605.5 431.498C602.486 628.499 652 606.499 644.973 422.98L605.5 431.498Z" fill="#171717" stroke="#171717" stroke-width="10" stroke-linejoin="bevel"/>
<path d="M148.5 453.998C134.5 567.998 184.902 731.998 184.902 467.998L148.5 453.998Z" fill="#171717" stroke="#171717" stroke-width="10" stroke-linejoin="bevel"/>
<path d="M391.059 100.366C412.778 95.821 437.529 102.203 461.382 129.77C475.307 120.491 496.171 111.636 517.849 112.842C529.85 113.51 542.075 117.268 553.342 125.701C563.959 133.648 573.498 145.576 581.238 162.482C604.475 162.707 635.945 169.627 658.216 190.375C681.736 212.288 693.873 248.528 677.411 304.821C687.8 322.66 697.333 349.804 692.378 375.239C689.778 388.586 683.193 401.378 670.845 411.865C659.334 421.642 643.062 429.21 620.896 433.584C622.617 456.764 618.485 487.368 599.654 507.74C579.418 529.633 544.045 537.946 486.978 516.605C475.847 532.925 456.143 551.752 430.263 558.676C402.829 566.015 369.628 559.681 333.994 525.5C319.179 535.562 296.554 544.503 272.818 540.708C247.254 536.62 221.869 518.021 204.077 473.949C174.735 473.189 146.01 462.622 127.855 441.177C109.131 419.058 102.481 386.373 116.493 343.679C108.529 330.86 101.092 310.859 103.428 289.844C105.879 267.789 118.999 245.491 151.285 229.704C153.399 210.181 161.84 183.495 181.003 163.408C201.12 142.323 232.52 129.085 278.888 138.173C285.166 133.974 294.95 129.182 306.303 126.792C317.77 124.378 331.134 124.365 344.102 130.221C354.201 118.112 370.836 104.598 391.059 100.366Z" fill="#F7F7F7" stroke="#171717" stroke-width="10" stroke-linejoin="round"/>
<path d="M83.8825 179.577C-66.761 226.25 28.891 107.487 118.541 80.2227L278.437 159.244C361.617 344.089 257.642 301.574 242.854 245.659C125.94 373.664 51.5397 264.143 83.8825 179.577Z" fill="#171717" stroke="#171717" stroke-width="10" stroke-linejoin="round"/>
<path d="M113.929 166.634C127.327 143.531 180.473 149.535 162.913 195.285C147.66 225.785 95.4411 205.914 113.929 166.634Z" fill="#F7F7F7" stroke="#171717" stroke-width="10" stroke-linejoin="round"/>
<path d="M128.197 180.713C134.342 169.785 158.72 172.625 150.666 194.266C143.669 208.693 119.716 199.294 128.197 180.713Z" fill="#171717"/>
<path d="M180.222 195.038C193.62 171.935 246.766 177.94 229.206 223.689C213.953 254.189 161.734 234.318 180.222 195.038Z" fill="#F7F7F7" stroke="#171717" stroke-width="10" stroke-linejoin="round"/>
<path d="M185.561 205.239C191.927 195.064 217.175 197.709 208.833 217.857C201.586 231.29 176.778 222.538 185.561 205.239Z" fill="#171717"/>
<path d="M527.5 212.497C539.5 202.498 578 216.996 563 248.497C586 235.496 631 267.996 592 299.496" stroke="#171717" stroke-width="10" stroke-linecap="round" stroke-linejoin="round"/>
<path d="M235.005 341.998C216 353.498 222.006 399.998 261.005 388.998C255.5 407.998 296 434.498 314 397.498" stroke="#171717" stroke-width="10" stroke-linecap="round" stroke-linejoin="round"/>
<path d="M199.511 5.37012C207.884 4.26282 216.904 5.51462 225.037 10.7236C232.333 15.396 238.513 22.9953 242.909 34.0186C251.767 33.3754 263.027 36.291 272.07 42.8428C282.269 50.2321 289.851 62.3922 288.514 79.4453C298.179 83.0913 305.079 90.5991 309.104 99.3623C313.675 109.311 314.701 121.155 311.925 131.744C309.132 142.396 302.378 152.095 291.164 156.981C280.745 161.521 267.285 161.554 251.008 155.561C247.781 159.032 243.46 161.397 238.864 162.741C232.851 164.5 225.997 164.644 219.442 163.063C207.582 160.203 196.403 151.56 193.002 136.344C189.6 136.874 185.923 136.919 182.261 136.548C176.272 135.941 169.921 134.187 164.269 131.198C158.622 128.212 153.45 123.869 150.22 117.973C147.742 113.45 146.53 108.232 146.948 102.43C136.496 101.145 128.428 96.3619 123.112 89.4668C116.942 81.4628 114.832 71.071 116.438 61.165C118.05 51.2269 123.433 41.5364 132.569 34.8633C140.99 28.713 152.299 25.3397 166.175 26.3525C168.546 21.8317 172.587 17.6533 177.24 14.3086C183.36 9.91001 191.187 6.47093 199.511 5.37012Z" fill="#F7F7F7" stroke="#171717" stroke-width="10" stroke-linejoin="round"/>
</svg>
