<svg width="730" height="685" viewBox="0 0 730 685" fill="none" xmlns="http://www.w3.org/2000/svg">
<path d="M354.004 9C400.714 2.6644 455.327 15.3917 481.116 63.0762C515.989 45.2128 562.14 56.7192 594.307 82.3184C627.057 108.383 647.901 151.047 629.476 197.449C645.002 201.062 661.063 211.782 674.976 225.968C692.486 243.822 707.833 268.376 715.889 295.489C723.958 322.649 724.802 352.745 712.678 381.22C701.131 408.338 678.165 433.174 640.267 452.411C645.131 469.233 642.334 488.485 634.639 506.549C625.832 527.223 610.25 547.3 590.254 562.256C570.225 577.236 545.487 587.278 518.393 587.328C494.06 587.373 468.355 579.355 443.011 560.456C437.251 572.942 425.154 583.626 410.98 591.651C392.017 602.388 367.365 609.571 342.325 610.618C317.287 611.666 291.232 606.595 269.976 592.067C251.957 579.753 237.906 560.99 230.813 534.653C221.805 542.543 209.706 547.843 196.788 550.788C177.255 555.241 154.376 554.703 133.256 548.643C112.136 542.582 92.1813 530.814 79.3047 512.254C67.3019 494.953 61.9619 472.483 66.7295 444.945C51.0618 439.341 39.6908 426.491 32.709 410.706C24.704 392.608 22.0872 369.994 25.0781 347.382C30.6998 304.882 56.571 260.302 107.377 244.85C101.915 233.271 99.6176 218.532 100.296 203.079C101.183 182.859 107.187 160.358 119.163 139.836C142.525 99.8048 188.297 67.8858 261.233 74.291C263.329 58.086 274.184 44.1466 288.685 33.5879C305.864 21.0789 329.3 12.3508 354.004 9Z" fill="#F7F7F7" stroke="#171717" stroke-width="15" stroke-linecap="round" stroke-linejoin="round"/>
<path d="M284.949 294.625C112.949 504.125 415.446 561.125 421.952 321.625L284.949 294.625Z" fill="#171717" stroke="#171717" stroke-width="15" stroke-linecap="round" stroke-linejoin="round"/>
<path d="M280.549 353.75C291.421 335.002 334.549 339.875 320.299 377C307.921 401.751 265.546 385.626 280.549 353.75Z" fill="#F7F7F7"/>
<path d="M291.841 366.896C297.538 356.765 320.136 359.398 312.67 379.459C306.184 392.833 283.98 384.12 291.841 366.896Z" fill="#171717"/>
<path d="M336.249 370.05C352.877 356.151 391.738 375.48 365.649 405.493C345.553 424.517 311.249 394.872 336.249 370.05Z" fill="#F7F7F7"/>
<path d="M336.658 382.949C345.958 375.691 368.39 386.622 353.911 402.428C342.702 412.399 322.729 395.975 336.658 382.949Z" fill="#171717"/>
<path d="M256.957 279.125C117.455 279.125 189.449 365.625 290.952 299.625L256.957 279.125Z" fill="#171717"/>
<path d="M438.949 353.125C454.949 457.625 575.949 468.125 464.449 326.125L438.949 353.125Z" fill="#171717"/>
<path d="M256.957 279.125C117.455 279.125 189.449 365.625 290.952 299.625L256.957 279.125Z" stroke="#171717" stroke-width="15" stroke-linecap="round" stroke-linejoin="round"/>
<path d="M438.949 353.125C454.949 457.625 575.949 468.125 464.449 326.125L438.949 353.125Z" stroke="#171717" stroke-width="15" stroke-linecap="round" stroke-linejoin="round"/>
<path d="M273.935 231.78C275.274 231.503 276.666 231.598 277.958 232.056L469.953 300.056L470.335 300.202C472.218 300.987 473.706 302.508 474.445 304.422C479.216 316.77 479.413 327.867 475.525 337.099C471.654 346.291 464.181 352.563 455.683 356.157C441.083 362.331 421.937 361.252 407.607 352.364C402.339 356.694 396.634 359.218 390.832 360.174C383.262 361.42 376.053 359.917 370.066 357.098C364.129 354.301 359.063 350.059 355.736 345.312C355.122 344.434 354.53 343.479 353.991 342.463C340.709 347.655 325.839 344.627 314.917 339.057C307.852 335.453 301.546 330.393 297.576 324.598C295.649 321.785 294.074 318.438 293.473 314.869C280.677 314.573 270.465 311.259 262.804 305.529C253.364 298.47 248.705 288.418 247.504 278.323C246.316 268.338 248.454 258.052 252.846 249.704C257.182 241.46 264.274 234.145 273.667 231.841L273.935 231.78Z" fill="#F7F7F7" stroke="#171717" stroke-width="15" stroke-linecap="round" stroke-linejoin="round"/>
<rect width="201.937" height="56" transform="translate(289.336 201.625) rotate(19.1683)" fill="#F7F7F7"/>
<path d="M9.94898 448.624C113.449 447.291 321.749 445.424 326.949 448.624C329.824 472.584 333.485 504.269 336.967 536.39C340.316 535.068 414.511 539.582 452.949 542.125C449.759 548.107 381.693 634.107 347.754 676.741C347.663 676.936 347.561 677.065 347.449 677.125C242.949 676.625 33.949 674.725 33.949 671.125C33.949 666.625 -2.05102 461.124 9.94898 448.624Z" fill="#F7F7F7"/>
<path d="M347.449 677.125C242.949 676.625 33.949 674.725 33.949 671.125C33.949 666.625 -2.05102 461.124 9.94898 448.624C113.449 447.291 321.749 445.424 326.949 448.624C329.831 472.642 333.503 504.424 336.992 536.625M347.449 677.125C381.282 634.625 449.749 548.125 452.949 542.125C412.645 539.458 333.027 534.625 336.992 536.625M347.449 677.125C350.984 675.222 344.399 604.977 336.992 536.625" stroke="#171717" stroke-width="15" stroke-linecap="round" stroke-linejoin="round"/>
<path d="M339.949 563.629C350.283 563.629 368.449 563.629 371.949 566.626L345.449 599.627" stroke="#171717" stroke-width="15" stroke-linecap="round" stroke-linejoin="round"/>
<path d="M188.949 549.625C189.783 538.792 196.949 516.425 218.949 513.625C218.616 525.625 212.149 549.625 188.949 549.625C176.704 553.646 167.054 564.779 159.819 577.625C159.196 570.958 156.549 556.825 150.949 553.625C134.149 558.425 123.949 543.292 120.949 535.125C143.349 533.525 150.283 546.792 150.949 553.625C156.549 556.825 159.196 570.958 159.819 577.625C167.054 564.779 176.704 553.646 188.949 549.625Z" fill="#171717"/>
<path d="M146.949 606.125C155.949 587.125 146.949 606.125 159.819 577.625M188.949 549.625C189.783 538.792 196.949 516.425 218.949 513.625C218.616 525.625 212.149 549.625 188.949 549.625ZM188.949 549.625C176.704 553.646 167.054 564.779 159.819 577.625M159.819 577.625C159.196 570.958 156.549 556.825 150.949 553.625M150.949 553.625C150.283 546.792 143.349 533.525 120.949 535.125C123.949 543.292 134.149 558.425 150.949 553.625Z" stroke="#171717" stroke-width="15" stroke-linecap="round" stroke-linejoin="round"/>
<path d="M371.019 546.06C356.023 526.566 412.022 465.066 432.519 501.06C451.519 530.563 381.522 558.066 371.019 546.06Z" fill="#171717" stroke="#171717" stroke-width="15" stroke-linecap="round" stroke-linejoin="round"/>
</svg>
